<?xml version="1.0" standalone="no"?>
<!DOCTYPE svg PUBLIC "-//W3C//DTD SVG 20010904//EN"
 "http://www.w3.org/TR/2001/REC-SVG-20010904/DTD/svg10.dtd">
<svg version="1.0" xmlns="http://www.w3.org/2000/svg"
 width="700.000000pt" height="700.000000pt" viewBox="0 0 700.000000 700.000000"
 preserveAspectRatio="xMidYMid meet">
<metadata>
Created by potrace 1.14, written by Peter Selinger 2001-2017
</metadata>
<g transform="translate(0.000000,700.000000) scale(0.100000,-0.100000)"
fill="#000000" stroke="none">
<path d="M524 6531 c-2 -2 -4 -573 -4 -1268 l0 -1263 292 2 293 3 0 973 0 972
1095 0 c602 1 1193 0 1313 0 l217 -1 -2 293 -3 293 -1598 0 c-879 0 -1601 -2
-1603 -4z"/>
<path d="M4899 6515 c-4 -58 -4 -533 -1 -547 4 -17 42 -18 583 -18 319 0 579
4 580 8 4 67 0 565 -5 570 -4 4 -266 7 -582 7 -567 0 -574 0 -575 -20z"/>
<path d="M5895 3742 l0 -1457 290 0 290 0 1 1457 1 1457 -291 0 -292 0 1
-1457z"/>
<path d="M4749 4834 c-176 -33 -328 -119 -569 -324 -69 -58 -277 -258 -340
-325 -65 -70 -144 -159 -190 -214 -25 -29 -50 -59 -55 -65 -6 -6 -41 -49 -78
-96 -38 -47 -74 -93 -82 -102 -8 -10 -61 -79 -117 -155 -57 -76 -107 -142
-111 -148 -4 -5 -51 -72 -104 -149 -92 -132 -125 -165 -155 -153 -19 7 -63
100 -115 246 -49 136 -77 182 -126 207 -27 15 -41 15 -107 5 -120 -18 -333
-104 -416 -167 -18 -14 -43 -46 -55 -71 -19 -40 -21 -56 -16 -156 10 -217 85
-496 216 -806 74 -174 121 -261 160 -293 16 -14 62 -36 102 -49 65 -21 92 -24
214 -23 257 1 385 60 477 218 110 189 371 546 687 940 100 124 187 231 194
238 7 7 28 33 47 58 19 25 37 47 41 50 3 3 53 61 110 130 57 69 113 136 125
150 12 14 90 106 174 205 84 99 176 207 205 240 29 33 84 96 121 141 38 44
114 132 168 195 128 147 157 212 114 256 -26 25 -406 38 -519 17z"/>
<path d="M524 2831 c-2 -2 -4 -265 -4 -583 0 -544 1 -578 18 -579 20 0 505 0
542 0 l25 1 0 574 c0 316 -4 578 -8 582 -8 8 -565 13 -573 5z"/>
<path d="M1203 1162 c-21 -3 -21 -4 -22 -293 l0 -289 27 -1 c31 0 2823 0 2864
1 l27 0 0 290 c-1 264 -2 290 -17 290 -82 3 -2862 4 -2879 2z"/>
<path d="M5300 1160 l-35 -5 0 -283 c0 -156 3 -286 8 -289 6 -4 818 -6 1143
-4 l61 1 -1 267 -1 268 -135 0 c-137 0 -166 6 -156 31 4 11 -6 14 -42 15 -319
3 -815 3 -842 -1z"/>
</g>
</svg>
