<svg xmlns="http://www.w3.org/2000/svg" width="17" height="17" fill="none"><path fill="#5C5F62" fill-rule="evenodd" d="M6.712 13.888a1.8 1.8 0 1 0 3.6 0v-3.6h3.601a1.8 1.8 0 1 0 0-3.6h-3.601v-3.6a1.8 1.8 0 1 0-3.6 0v3.6H3.113a1.8 1.8 0 1 0 0 3.6h3.599v3.6Z" clip-rule="evenodd"/><path fill="#EFEEEE" d="M10.312 10.289v-.8h-.8v.8h.8Zm0-3.6h-.8v.8h.8v-.8Zm-3.6 0v.8h.8v-.8h-.8Zm0 3.6h.8v-.8h-.8v.8Zm1.8 4.599a1 1 0 0 1-1-1h-1.6a2.6 2.6 0 0 0 2.6 2.6v-1.6Zm1-1a1 1 0 0 1-1 1v1.6a2.6 2.6 0 0 0 2.6-2.6h-1.6Zm0-3.6v3.6h1.6v-3.6h-1.6Zm4.401-.8h-3.601v1.6h3.601v-1.6Zm1-1a1 1 0 0 1-1 1v1.6a2.6 2.6 0 0 0 2.6-2.6h-1.6Zm-1-1a1 1 0 0 1 1 1h1.6a2.6 2.6 0 0 0-2.6-2.6v1.6Zm-3.601 0h3.601v-1.6h-3.601v1.6Zm-.8-4.4v3.6h1.6v-3.6h-1.6Zm-1-1a1 1 0 0 1 1 1h1.6a2.6 2.6 0 0 0-2.6-2.6v1.6Zm-1 1a1 1 0 0 1 1-1v-1.6a2.6 2.6 0 0 0-2.6 2.6h1.6Zm0 3.6v-3.6h-1.6v3.6h1.6Zm-4.399.8h3.599v-1.6H3.113v1.6Zm-1 1a1 1 0 0 1 1-1v-1.6a2.6 2.6 0 0 0-2.6 2.6h1.6Zm1 1a1 1 0 0 1-1-1h-1.6a2.6 2.6 0 0 0 2.6 2.6v-1.6Zm3.599 0H3.113v1.6h3.599v-1.6Zm.8 4.4v-3.6h-1.6v3.6h1.6Z"/></svg>